{
 "cells": [
  {
   "cell_type": "code",
   "execution_count": 1,
   "metadata": {},
   "outputs": [],
   "source": [
    "from Test import Test\n",
    "from models.WhisperPI import WhisperPI\n",
    "from models.WhisperCPP import WhisperCPP\n",
    "import json"
   ]
  },
  {
   "cell_type": "code",
   "execution_count": 2,
   "metadata": {},
   "outputs": [],
   "source": [
    "model = WhisperPI(\"whisper_pi_large\",\n",
    "                  {\n",
    "                    \"model_type\": \"large\",\n",
    "                    \"language\": \"en\"\n",
    "                  }\n",
    ")\n",
    "\n",
    "model_med = WhisperPI(\"whisper_pi_medium\",\n",
    "                  {\n",
    "                    \"model_type\": \"medium\",\n",
    "                    \"language\": \"en\"\n",
    "                  }\n",
    ")\n",
    "\n",
    "cpp_model = WhisperCPP(\"whisper_cpp\",\n",
    "                       {\n",
    "                           \"model_type\": \"large\",\n",
    "                           \"language\": \"en\"\n",
    "                       })"
   ]
  },
  {
   "cell_type": "code",
   "execution_count": 3,
   "metadata": {},
   "outputs": [
    {
     "name": "stderr",
     "output_type": "stream",
     "text": [
      "whisper_init_from_file_no_state: loading model from '/nfs/unity/unixhome/rmohl/.local/share/whispercpp/ggml-large.bin'\n",
      "whisper_model_load: loading model\n",
      "whisper_model_load: n_vocab       = 51865\n",
      "whisper_model_load: n_audio_ctx   = 1500\n",
      "whisper_model_load: n_audio_state = 1280\n",
      "whisper_model_load: n_audio_head  = 20\n",
      "whisper_model_load: n_audio_layer = 32\n",
      "whisper_model_load: n_text_ctx    = 448\n",
      "whisper_model_load: n_text_state  = 1280\n",
      "whisper_model_load: n_text_head   = 20\n",
      "whisper_model_load: n_text_layer  = 32\n",
      "whisper_model_load: n_mels        = 80\n",
      "whisper_model_load: f16           = 1\n",
      "whisper_model_load: type          = 5\n",
      "whisper_model_load: mem required  = 3336.00 MB (+   71.00 MB per decoder)\n",
      "whisper_model_load: adding 1608 extra tokens\n",
      "whisper_model_load: model ctx     = 2950.97 MB\n",
      "whisper_model_load: model size    = 2950.66 MB\n",
      "whisper_init_state: kv self size  =   70.00 MB\n",
      "whisper_init_state: kv cross size =  234.38 MB\n",
      "ffmpeg version 4.4.2-0ubuntu0.22.04.1 Copyright (c) 2000-2021 the FFmpeg developers\n",
      "  built with gcc 11 (Ubuntu 11.2.0-19ubuntu1)\n",
      "  configuration: --prefix=/usr --extra-version=0ubuntu0.22.04.1 --toolchain=hardened --libdir=/usr/lib/x86_64-linux-gnu --incdir=/usr/include/x86_64-linux-gnu --arch=amd64 --enable-gpl --disable-stripping --enable-gnutls --enable-ladspa --enable-libaom --enable-libass --enable-libbluray --enable-libbs2b --enable-libcaca --enable-libcdio --enable-libcodec2 --enable-libdav1d --enable-libflite --enable-libfontconfig --enable-libfreetype --enable-libfribidi --enable-libgme --enable-libgsm --enable-libjack --enable-libmp3lame --enable-libmysofa --enable-libopenjpeg --enable-libopenmpt --enable-libopus --enable-libpulse --enable-librabbitmq --enable-librubberband --enable-libshine --enable-libsnappy --enable-libsoxr --enable-libspeex --enable-libsrt --enable-libssh --enable-libtheora --enable-libtwolame --enable-libvidstab --enable-libvorbis --enable-libvpx --enable-libwebp --enable-libx265 --enable-libxml2 --enable-libxvid --enable-libzimg --enable-libzmq --enable-libzvbi --enable-lv2 --enable-omx --enable-openal --enable-opencl --enable-opengl --enable-sdl2 --enable-pocketsphinx --enable-librsvg --enable-libmfx --enable-libdc1394 --enable-libdrm --enable-libiec61883 --enable-chromaprint --enable-frei0r --enable-libx264 --enable-shared\n",
      "  libavutil      56. 70.100 / 56. 70.100\n",
      "  libavcodec     58.134.100 / 58.134.100\n",
      "  libavformat    58. 76.100 / 58. 76.100\n",
      "  libavdevice    58. 13.100 / 58. 13.100\n",
      "  libavfilter     7.110.100 /  7.110.100\n",
      "  libswscale      5.  9.100 /  5.  9.100\n",
      "  libswresample   3.  9.100 /  3.  9.100\n",
      "  libpostproc    55.  9.100 / 55.  9.100\n",
      "Input #0, mov,mp4,m4a,3gp,3g2,mj2, from './datasets/dev_dataset/test_data/erik_schnetter_1-30sec.mp4':\n",
      "  Metadata:\n",
      "    major_brand     : isom\n",
      "    minor_version   : 512\n",
      "    compatible_brands: isomiso2avc1mp41\n",
      "    encoder         : Lavf58.76.100\n",
      "  Duration: 00:00:30.03, start: 0.000000, bitrate: 328 kb/s\n",
      "  Stream #0:0(und): Video: h264 (High) (avc1 / 0x31637661), yuv420p, 640x360 [SAR 1:1 DAR 16:9], 192 kb/s, 29.97 fps, 29.97 tbr, 30k tbn, 59.94 tbc (default)\n",
      "    Metadata:\n",
      "      handler_name    : VideoHandler\n",
      "      vendor_id       : [0][0][0][0]\n",
      "  Stream #0:1(und): Audio: aac (LC) (mp4a / 0x6134706D), 48000 Hz, stereo, fltp, 126 kb/s (default)\n",
      "    Metadata:\n",
      "      handler_name    : SoundHandler\n",
      "      vendor_id       : [0][0][0][0]\n",
      "Stream mapping:\n",
      "  Stream #0:1 -> #0:0 (aac (native) -> pcm_s16le (native))\n",
      "Press [q] to stop, [?] for help\n",
      "Output #0, wav, to './datasets/dev_dataset/test_data/erik_schnetter_1-30sec.wav':\n",
      "  Metadata:\n",
      "    major_brand     : isom\n",
      "    minor_version   : 512\n",
      "    compatible_brands: isomiso2avc1mp41\n",
      "    ISFT            : Lavf58.76.100\n",
      "  Stream #0:0(und): Audio: pcm_s16le ([1][0][0][0] / 0x0001), 16000 Hz, mono, s16, 256 kb/s (default)\n",
      "    Metadata:\n",
      "      handler_name    : SoundHandler\n",
      "      vendor_id       : [0][0][0][0]\n",
      "      encoder         : Lavc58.134.100 pcm_s16le\n",
      "size=     938kB time=00:00:30.01 bitrate= 256.0kbits/s speed= 402x    \n",
      "video:0kB audio:938kB subtitle:0kB other streams:0kB global headers:0kB muxing overhead: 0.008121%\n",
      "whisper_init_from_file_no_state: loading model from '/nfs/unity/unixhome/rmohl/.local/share/whispercpp/ggml-large.bin'\n",
      "whisper_model_load: loading model\n",
      "whisper_model_load: n_vocab       = 51865\n",
      "whisper_model_load: n_audio_ctx   = 1500\n",
      "whisper_model_load: n_audio_state = 1280\n",
      "whisper_model_load: n_audio_head  = 20\n",
      "whisper_model_load: n_audio_layer = 32\n",
      "whisper_model_load: n_text_ctx    = 448\n",
      "whisper_model_load: n_text_state  = 1280\n",
      "whisper_model_load: n_text_head   = 20\n",
      "whisper_model_load: n_text_layer  = 32\n",
      "whisper_model_load: n_mels        = 80\n",
      "whisper_model_load: f16           = 1\n",
      "whisper_model_load: type          = 5\n",
      "whisper_model_load: mem required  = 3336.00 MB (+   71.00 MB per decoder)\n",
      "whisper_model_load: adding 1608 extra tokens\n",
      "whisper_model_load: model ctx     = 2950.97 MB\n",
      "whisper_model_load: model size    = 2950.66 MB\n",
      "whisper_init_state: kv self size  =   70.00 MB\n",
      "whisper_init_state: kv cross size =  234.38 MB\n",
      "ffmpeg version 4.4.2-0ubuntu0.22.04.1 Copyright (c) 2000-2021 the FFmpeg developers\n",
      "  built with gcc 11 (Ubuntu 11.2.0-19ubuntu1)\n",
      "  configuration: --prefix=/usr --extra-version=0ubuntu0.22.04.1 --toolchain=hardened --libdir=/usr/lib/x86_64-linux-gnu --incdir=/usr/include/x86_64-linux-gnu --arch=amd64 --enable-gpl --disable-stripping --enable-gnutls --enable-ladspa --enable-libaom --enable-libass --enable-libbluray --enable-libbs2b --enable-libcaca --enable-libcdio --enable-libcodec2 --enable-libdav1d --enable-libflite --enable-libfontconfig --enable-libfreetype --enable-libfribidi --enable-libgme --enable-libgsm --enable-libjack --enable-libmp3lame --enable-libmysofa --enable-libopenjpeg --enable-libopenmpt --enable-libopus --enable-libpulse --enable-librabbitmq --enable-librubberband --enable-libshine --enable-libsnappy --enable-libsoxr --enable-libspeex --enable-libsrt --enable-libssh --enable-libtheora --enable-libtwolame --enable-libvidstab --enable-libvorbis --enable-libvpx --enable-libwebp --enable-libx265 --enable-libxml2 --enable-libxvid --enable-libzimg --enable-libzmq --enable-libzvbi --enable-lv2 --enable-omx --enable-openal --enable-opencl --enable-opengl --enable-sdl2 --enable-pocketsphinx --enable-librsvg --enable-libmfx --enable-libdc1394 --enable-libdrm --enable-libiec61883 --enable-chromaprint --enable-frei0r --enable-libx264 --enable-shared\n",
      "  libavutil      56. 70.100 / 56. 70.100\n",
      "  libavcodec     58.134.100 / 58.134.100\n",
      "  libavformat    58. 76.100 / 58. 76.100\n",
      "  libavdevice    58. 13.100 / 58. 13.100\n",
      "  libavfilter     7.110.100 /  7.110.100\n",
      "  libswscale      5.  9.100 /  5.  9.100\n",
      "  libswresample   3.  9.100 /  3.  9.100\n",
      "  libpostproc    55.  9.100 / 55.  9.100\n",
      "Input #0, mov,mp4,m4a,3gp,3g2,mj2, from './datasets/dev_dataset/test_data/lucien_hardy_1-2min.mp4':\n",
      "  Metadata:\n",
      "    major_brand     : isom\n",
      "    minor_version   : 512\n",
      "    compatible_brands: isomiso2avc1mp41\n",
      "    encoder         : Lavf58.76.100\n",
      "  Duration: 00:02:00.02, start: 0.000000, bitrate: 384 kb/s\n",
      "  Stream #0:0(und): Video: h264 (High) (avc1 / 0x31637661), yuv420p, 640x360 [SAR 1:1 DAR 16:9], 252 kb/s, 29.97 fps, 29.97 tbr, 30k tbn, 59.94 tbc (default)\n",
      "    Metadata:\n",
      "      handler_name    : VideoHandler\n",
      "      vendor_id       : [0][0][0][0]\n",
      "  Stream #0:1(und): Audio: aac (LC) (mp4a / 0x6134706D), 48000 Hz, stereo, fltp, 122 kb/s (default)\n",
      "    Metadata:\n",
      "      handler_name    : SoundHandler\n",
      "      vendor_id       : [0][0][0][0]\n",
      "Stream mapping:\n",
      "  Stream #0:1 -> #0:0 (aac (native) -> pcm_s16le (native))\n",
      "Press [q] to stop, [?] for help\n",
      "Output #0, wav, to './datasets/dev_dataset/test_data/lucien_hardy_1-2min.wav':\n",
      "  Metadata:\n",
      "    major_brand     : isom\n",
      "    minor_version   : 512\n",
      "    compatible_brands: isomiso2avc1mp41\n",
      "    ISFT            : Lavf58.76.100\n",
      "  Stream #0:0(und): Audio: pcm_s16le ([1][0][0][0] / 0x0001), 16000 Hz, mono, s16, 256 kb/s (default)\n",
      "    Metadata:\n",
      "      handler_name    : SoundHandler\n",
      "      vendor_id       : [0][0][0][0]\n",
      "      encoder         : Lavc58.134.100 pcm_s16le\n",
      "size=    3750kB time=00:01:59.99 bitrate= 256.0kbits/s speed=90.6x    \n",
      "video:0kB audio:3750kB subtitle:0kB other streams:0kB global headers:0kB muxing overhead: 0.002031%\n",
      "whisper_init_from_file_no_state: loading model from '/nfs/unity/unixhome/rmohl/.local/share/whispercpp/ggml-large.bin'\n",
      "whisper_model_load: loading model\n",
      "whisper_model_load: n_vocab       = 51865\n",
      "whisper_model_load: n_audio_ctx   = 1500\n",
      "whisper_model_load: n_audio_state = 1280\n",
      "whisper_model_load: n_audio_head  = 20\n",
      "whisper_model_load: n_audio_layer = 32\n",
      "whisper_model_load: n_text_ctx    = 448\n",
      "whisper_model_load: n_text_state  = 1280\n",
      "whisper_model_load: n_text_head   = 20\n",
      "whisper_model_load: n_text_layer  = 32\n",
      "whisper_model_load: n_mels        = 80\n",
      "whisper_model_load: f16           = 1\n",
      "whisper_model_load: type          = 5\n",
      "whisper_model_load: mem required  = 3336.00 MB (+   71.00 MB per decoder)\n",
      "whisper_model_load: adding 1608 extra tokens\n",
      "whisper_model_load: model ctx     = 2950.97 MB\n",
      "whisper_model_load: model size    = 2950.66 MB\n",
      "whisper_init_state: kv self size  =   70.00 MB\n",
      "whisper_init_state: kv cross size =  234.38 MB\n"
     ]
    }
   ],
   "source": [
    "# test = Test([model, model_med], dataset_path=\"dev\")\n",
    "test = Test([cpp_model], dataset_path=\"dev\")\n"
   ]
  },
  {
   "cell_type": "code",
   "execution_count": 4,
   "metadata": {},
   "outputs": [],
   "source": [
    "json_obj = json.dumps(test.results, indent=4)\n",
    "with open(\"results.json\", \"w\") as f:\n",
    "    f.write(json_obj)\n",
    "f.close()"
   ]
  },
  {
   "cell_type": "code",
   "execution_count": 6,
   "metadata": {},
   "outputs": [
    {
     "name": "stdout",
     "output_type": "stream",
     "text": [
      "{'dustin_lang_2-30sec.mp4': '0:03:29.852032', 'erik_schnetter_1-30sec.mp4': '0:03:48.189015', 'lucien_hardy_1-2min.mp4': '0:10:28.370633'}\n"
     ]
    }
   ],
   "source": [
    "print(cpp_model.transcribe_time)"
   ]
  }
 ],
 "metadata": {
  "kernelspec": {
   "display_name": "Python 3",
   "language": "python",
   "name": "python3"
  },
  "language_info": {
   "codemirror_mode": {
    "name": "ipython",
    "version": 3
   },
   "file_extension": ".py",
   "mimetype": "text/x-python",
   "name": "python",
   "nbconvert_exporter": "python",
   "pygments_lexer": "ipython3",
   "version": "3.10.6"
  },
  "orig_nbformat": 4
 },
 "nbformat": 4,
 "nbformat_minor": 2
}
